<svg width="100" height="77" viewBox="0 0 100 77" fill="none" xmlns="http://www.w3.org/2000/svg">
<path d="M46.1456 56.0563C46.1563 58.7303 45.6 61.375 44.5148 63.8092C43.4296 66.2435 41.8411 68.4098 39.8582 70.1598C35.6032 74.1186 30.0112 76.2458 24.2529 76.096C16.9427 76.096 11.1709 73.5018 6.9374 68.3135C2.7083 63.1545 0.448772 56.6118 0.574563 49.8893C0.574563 33.7943 4.90448 21.6825 13.5643 13.5538C22.2242 5.42512 31.8103 0.924852 42.3228 0.0530051V17.7079C37.0252 18.2832 32.01 20.432 27.8996 23.8878C25.7842 25.5014 24.0416 27.5685 22.7945 29.9432C21.5474 32.3179 20.8262 34.9425 20.6816 37.6322C22.4276 36.7651 24.3481 36.326 26.29 36.35C32.569 36.35 37.448 38.1664 40.927 41.7991C42.6844 43.7013 44.0513 45.9424 44.9475 48.3907C45.8437 50.8391 46.251 53.4453 46.1456 56.0563ZM99.5884 56.0563C99.6016 58.7307 99.0464 61.3762 97.9611 63.8108C96.8757 66.2455 95.2859 68.4115 93.301 70.1598C89.046 74.1186 83.4541 76.2458 77.6957 76.096C70.4023 76.096 64.6766 73.5018 60.5186 68.3135C56.3403 63.13 54.1111 56.5977 54.2312 49.8893C54.2312 33.7943 58.515 21.6825 67.0826 13.5538C75.6502 5.42512 85.2238 0.907746 95.8034 0.00170898V17.6566C90.5174 18.2541 85.5198 20.4208 81.4304 23.8878C79.2992 25.4919 77.5408 27.5551 76.2803 29.9306C75.0197 32.3061 74.288 34.9356 74.1371 37.6322C75.8784 36.7648 77.7949 36.3256 79.7328 36.35C86.0035 36.35 90.8825 38.1664 94.3699 41.7991C96.1274 43.7007 97.4935 45.942 98.3876 48.3907C99.2817 50.8394 99.6858 53.4459 99.5758 56.0563H99.5884Z" fill="#F3F5F7" fill-opacity="0.25"/>
</svg>
